<svg width="635" height="720" xmlns="http://www.w3.org/2000/svg" xmlns:xlink="http://www.w3.org/1999/xlink" overflow="hidden">
    <g>
        <path d="M57.7004 647.11 0-0.0185726 634-0.0185726 576.246 647.005 316.612 718.982 57.7004 647.11Z" fill="#2C9593" fill-rule="evenodd"/>
        <path d="M317 663.982 526.671 605.827 576 52.9814 317 52.9814 317 663.982Z" fill="#29B6A7" fill-rule="evenodd"/>
        <path d="M533.897 287.789 422.015 287.789 422.015 206.449 540.97 206.449 548.012 127.013 339.012 127.013 339.012 367.217 447.247 367.217 437.687 470.234 339.013 488.208 339.013 571.013 511.893 531.655Z" fill="#FFFFFF" fill-rule="evenodd"/>
        <path d="M58 127.522 130.713 127 171 546 94.3566 531.208 58 127.522Z" fill="#FFFFFF" fill-rule="evenodd"/>
        <path d="M217.201 305.313 296 305C296 394.321 296 480.679 296 570L217.212 554.546C217.913 469.649 216.501 390.21 217.201 305.313Z" fill="#FFFFFF" fill-rule="evenodd"/>
        <path d="M100 287 295.898 297.425C295.543 323.283 296.252 349.142 295.898 375L100 360.309 100 287Z" fill="#FFFFFF" fill-rule="evenodd"/>
    </g>
</svg>